# xmcd
#
# Track frame offsets:
#	150
#	16159
#	24027
#	34094
#	40022
#	52331
#	57933
#	70606
#	82542
#	88382
#	98805
#	108562
#	120171
#
# Disc length: 1765 seconds
#
# Revision: 0
# Processed by: cddbd v1.5.1PL2 Copyright (c) Steve Scherf et al.
# Submitted via: dBpowerAMP V4.0
#
DISCID=9306e30d
DTITLE=Le Volume Courbe - I Killed My Best Friend
DYEAR=2005
DGENRE=Alternative
TTITLE0=Harmony
TTITLE1=Papillon De Nuit
TTITLE2=Who Are You
TTITLE3=I Killed My Best Friend
TTITLE4=I Shall Skip Your Judgement
TTITLE5=Thank You
TTITLE6=Ain't Got No... I Got Life
TTITLE7=Sitting In Your Head
TTITLE8=Through This Time
TTITLE9=Hanging Around
TTITLE10=The Mind Is A Horse
TTITLE11=This and That
TTITLE12=Locarno
EXTD=Guest appearances from Kevin Shields, Hope Sandoval, Martin Duffy and O'Ciosoig
EXTT0=
EXTT1=
EXTT2=
EXTT3=
EXTT4=
EXTT5=
EXTT6=
EXTT7=
EXTT8=
EXTT9=
EXTT10=
EXTT11=
EXTT12=
PLAYORDER=
